<svg width="289" height="286" viewBox="0 0 289 286" fill="none" xmlns="http://www.w3.org/2000/svg">
<circle cx="100" cy="186" r="100" fill="#89F9F2" fill-opacity="0.4"/>
<circle cx="189" cy="100" r="100" fill="#89F9F2" fill-opacity="0.4"/>
<g clip-path="url(#clip0_104_10)">
<path d="M134.759 115.355H133.619V89.794C133.619 85.8704 131.713 82.1075 128.319 79.3331C124.926 76.5587 120.323 75 115.524 75H49.2835C46.9072 75 44.5541 75.3826 42.3587 76.126C40.1633 76.8695 38.1684 77.9592 36.4881 79.3329C34.8078 80.7066 33.4749 82.3375 32.5655 84.1324C31.656 85.9273 31.188 87.851 31.1879 89.7938V230.025C31.1879 231.967 31.656 233.891 32.5653 235.686C33.4747 237.481 34.8076 239.112 36.4879 240.486C38.1682 241.859 40.163 242.949 42.3584 243.693C44.5538 244.436 46.9069 244.819 49.2832 244.819H115.523C120.322 244.819 124.925 243.26 128.318 240.486C131.712 237.711 133.618 233.948 133.618 230.025V133.55H134.758L134.759 115.355Z" fill="#3F3D56"/>
<path d="M129.929 88.8031V231.015C129.928 233.99 128.483 236.843 125.91 238.947C123.338 241.05 119.848 242.233 116.21 242.234H48.6101C44.97 242.234 41.4788 241.053 38.9043 238.949C36.3298 236.845 34.8829 233.991 34.8818 231.015V88.8031C34.8829 85.8272 36.3297 82.9735 38.9041 80.8697C41.4785 78.7659 44.9696 77.5842 48.6095 77.5846H56.8097C56.4071 78.3941 56.2538 79.2721 56.3634 80.1414C56.473 81.0107 56.8421 81.8447 57.4383 82.57C58.0345 83.2954 58.8395 83.8899 59.7825 84.3014C60.7255 84.7128 61.7777 84.9285 62.8466 84.9296H101.386C102.455 84.9285 103.507 84.7128 104.45 84.3014C105.393 83.8899 106.198 83.2954 106.795 82.57C107.391 81.8447 107.76 81.0107 107.869 80.1414C107.979 79.2721 107.826 78.3941 107.423 77.5846H116.207C119.846 77.5851 123.335 78.7669 125.908 80.8702C128.481 82.9735 129.928 85.8262 129.929 88.801V88.8031Z" fill="white"/>
<path d="M114.236 211.725H51.8062C49.5608 211.723 47.4082 210.992 45.8205 209.694C44.2328 208.396 43.3398 206.636 43.3372 204.801V132.998C43.3372 115.564 60.6853 101.381 82.009 101.381H114.236C116.482 101.383 118.634 102.113 120.222 103.411C121.81 104.709 122.703 106.469 122.705 108.305V204.801C122.703 206.636 121.81 208.396 120.222 209.694C118.634 210.992 116.482 211.723 114.236 211.725Z" fill="#E6E6E6"/>
<path d="M48.0665 229.009C50.5488 229.009 52.5611 227.364 52.5611 225.334C52.5611 223.305 50.5488 221.66 48.0665 221.66C45.5842 221.66 43.572 223.305 43.572 225.334C43.572 227.364 45.5842 229.009 48.0665 229.009Z" fill="#E6E6E6"/>
<path d="M118.064 229.009C120.547 229.009 122.559 227.364 122.559 225.334C122.559 223.305 120.547 221.66 118.064 221.66C115.582 221.66 113.57 223.305 113.57 225.334C113.57 227.364 115.582 229.009 118.064 229.009Z" fill="#E6E6E6"/>
<path d="M118.674 211.583L115.887 214.066L102.85 206.461L106.962 202.797L118.674 211.583Z" fill="#FFB6B6"/>
<path d="M122.327 213.158L113.344 221.163L113.22 221.07C112.209 220.312 111.608 219.256 111.549 218.136C111.49 217.015 111.978 215.922 112.906 215.096L112.906 215.095L113.19 212.615L117.609 210.905L118.393 210.207L122.327 213.158Z" fill="#2F2E41"/>
<path d="M120.495 239.286L116.374 239.286L114.414 226.291L120.496 226.291L120.495 239.286Z" fill="#FFB6B6"/>
<path d="M121.546 242.552L108.259 242.552V242.414C108.259 241.293 108.804 240.217 109.774 239.424C110.743 238.631 112.059 238.186 113.431 238.186H113.431L115.858 236.68L120.387 238.186L121.547 238.186L121.546 242.552Z" fill="#2F2E41"/>
<path d="M100.595 173.683C100.595 173.683 75.4202 193.555 91.3352 199.706H96.2542C96.2542 199.706 97.7324 195.413 101.117 191.792C101.581 191.295 103.322 191.396 103.806 190.911C106.758 187.952 109.959 185.411 112.169 185.512L113.616 199.233L112.902 203.255C112.453 205.787 112.571 208.364 113.251 210.861L112.748 226.912L121.575 226.916C121.575 226.916 121.931 223.155 122.229 218.45C122.309 217.189 122.972 216.311 123.036 214.969C123.188 211.753 122.683 208.009 122.586 205.384L129.241 176.522L100.595 173.683Z" fill="#2F2E41"/>
<path d="M112.222 131.579L108.118 136.068L98.2792 140.799L104.066 153.101L104.285 162.254L103.747 163.358L104.355 165.166C104.355 165.166 104.075 167.282 102.578 168.854C99.961 171.601 95.9652 174.586 100.015 175.339C106.381 176.522 128.951 179.124 130.109 176.995C130.509 176.258 130.459 173.144 130.223 169.385C130.179 168.682 129.229 167.918 129.173 167.181C129.132 166.628 129.986 166.108 129.94 165.548C129.424 159.301 128.662 152.865 128.662 152.865L130.927 135.641L121.867 133.729L120.85 131.609L112.222 131.579Z" fill="#1ABC9C"/>
<path d="M90.1264 198.526L91.472 199.916C91.472 199.916 103.848 206.995 104.273 207.656L106.228 209.169L110.961 205.033L108.5 202.511C106.53 200.493 103.986 198.901 101.089 197.873L97.3172 195.137L90.1264 198.526Z" fill="#2F2E41"/>
<path d="M97.99 178.658L100.244 160.824L100.838 153.484L94.5306 152.552C94.5306 152.552 93.586 157.598 92.7597 160.559C91.9442 163.481 93.846 178.267 93.8964 178.657C93.4331 178.996 93.1066 179.441 92.9599 179.935C92.8132 180.429 92.8533 180.947 93.0748 181.422C93.2964 181.897 93.689 182.305 94.2008 182.593C94.7125 182.882 95.3192 183.036 95.9406 183.036C96.5621 183.037 97.169 182.883 97.681 182.595C98.1931 182.307 98.5862 181.899 98.8083 181.424C99.0304 180.95 99.0711 180.431 98.925 179.937C98.7789 179.443 98.4528 178.998 97.99 178.658Z" fill="#FFB9B9"/>
<path d="M89.84 163.82L100.729 166.08L100.654 163.581L101.48 162.864L103.131 155.792L105.5 151.65L104.885 137.483L98.8674 140.092L98.8601 140.097C97.8093 141.042 96.9305 142.106 96.2508 143.256C93.9824 147.026 91.8033 155.33 90.6627 160.153C90.6235 160.255 90.5479 160.344 90.4457 160.409C89.8798 160.834 89.5106 161.405 89.4002 162.027C89.2899 162.648 89.4452 163.282 89.84 163.82L89.84 163.82Z" fill="#1ABC9C"/>
<path d="M154.506 168.374C154.506 168.374 141.249 156.947 141.125 156.732C140.199 150.983 137.536 148.447 137.137 148.722L130.263 150.669C130.263 150.669 132.307 155.963 133.692 159.107C135.015 162.112 150.261 169.45 150.515 169.813C150.242 170.306 150.158 170.855 150.275 171.388C150.392 171.921 150.704 172.412 151.17 172.796C151.636 173.181 152.234 173.441 152.884 173.542C153.535 173.643 154.207 173.58 154.813 173.361C155.419 173.143 155.929 172.779 156.277 172.318C156.624 171.858 156.793 171.322 156.759 170.781C156.726 170.24 156.493 169.721 156.09 169.291C155.688 168.861 155.135 168.541 154.506 168.374H154.506Z" fill="#FFB9B9"/>
<path d="M124.712 136.034C124.712 136.034 131.46 133.33 134.077 138.641C135.512 141.639 139.181 148.915 141.01 153.393C141.022 153.422 141.039 153.449 141.06 153.474C141.549 154.068 141.813 154.767 141.819 155.483C141.818 155.535 141.825 155.587 141.839 155.638C141.839 155.638 134.423 156.819 132.218 159.997L131.343 159.221L131.187 158.677L124.79 144.72L124.712 136.034Z" fill="#1ABC9C"/>
<path d="M234.912 157.708H155.908C155.204 157.707 154.529 157.478 154.031 157.071C153.533 156.664 153.253 156.113 153.253 155.537V146.077C153.253 145.502 153.533 144.95 154.031 144.543C154.529 144.136 155.204 143.907 155.908 143.906H234.912C235.616 143.907 236.291 144.136 236.788 144.543C237.286 144.95 237.566 145.502 237.567 146.077V155.537C237.566 156.113 237.286 156.664 236.788 157.071C236.291 157.478 235.616 157.707 234.912 157.708Z" fill="#E6E6E6"/>
<path d="M227.236 156.244H157.699C156.995 156.243 156.32 156.014 155.822 155.607C155.325 155.2 155.045 154.648 155.044 154.073V147.542C155.045 146.967 155.325 146.415 155.822 146.008C156.32 145.601 156.995 145.372 157.699 145.372H233.121C233.825 145.372 234.5 145.601 234.998 146.008C235.495 146.415 235.775 146.967 235.776 147.542V149.261C235.774 151.112 234.873 152.887 233.272 154.196C231.671 155.505 229.5 156.241 227.236 156.244Z" fill="white"/>
<path d="M203.25 150.134H171.496C171.314 150.134 171.14 150.075 171.012 149.97C170.883 149.865 170.811 149.723 170.811 149.574C170.811 149.426 170.883 149.283 171.012 149.178C171.14 149.073 171.314 149.014 171.496 149.014H203.25C203.431 149.014 203.605 149.073 203.734 149.178C203.862 149.283 203.934 149.426 203.934 149.574C203.934 149.723 203.862 149.865 203.734 149.97C203.605 150.075 203.431 150.134 203.25 150.134Z" fill="#1ABC9C"/>
<path d="M219.324 152.424H171.496C171.314 152.424 171.14 152.365 171.012 152.26C170.883 152.155 170.811 152.013 170.811 151.864C170.811 151.716 170.883 151.573 171.012 151.468C171.14 151.363 171.314 151.304 171.496 151.304H219.324C219.505 151.304 219.68 151.363 219.808 151.468C219.936 151.573 220.009 151.716 220.009 151.864C220.009 152.013 219.936 152.155 219.808 152.26C219.68 152.365 219.505 152.424 219.324 152.424Z" fill="#E6E6E6"/>
<path d="M234.912 177.779H155.908C155.204 177.778 154.529 177.549 154.031 177.142C153.533 176.735 153.253 176.184 153.253 175.608V166.148C153.253 165.573 153.533 165.021 154.031 164.614C154.529 164.207 155.204 163.978 155.908 163.977H234.912C235.616 163.978 236.291 164.207 236.788 164.614C237.286 165.021 237.566 165.573 237.567 166.148V175.608C237.566 176.184 237.286 176.735 236.788 177.142C236.291 177.549 235.616 177.778 234.912 177.779Z" fill="#E6E6E6"/>
<path d="M227.236 176.315H157.699C156.995 176.314 156.32 176.085 155.822 175.678C155.325 175.271 155.045 174.719 155.044 174.144V167.614C155.045 167.038 155.325 166.486 155.822 166.079C156.32 165.672 156.995 165.443 157.699 165.443H233.121C233.825 165.443 234.5 165.672 234.998 166.079C235.495 166.486 235.775 167.038 235.776 167.614V169.332C235.774 171.183 234.873 172.958 233.272 174.267C231.671 175.576 229.5 176.313 227.236 176.315Z" fill="white"/>
<path d="M203.25 170.205H171.496C171.406 170.205 171.317 170.191 171.234 170.163C171.151 170.134 171.075 170.093 171.012 170.041C170.948 169.989 170.898 169.928 170.863 169.86C170.829 169.792 170.811 169.719 170.811 169.645C170.811 169.572 170.829 169.499 170.863 169.431C170.898 169.363 170.948 169.301 171.012 169.249C171.075 169.197 171.151 169.156 171.234 169.128C171.317 169.1 171.406 169.086 171.496 169.086H203.25C203.431 169.086 203.605 169.144 203.734 169.249C203.862 169.354 203.934 169.497 203.934 169.645C203.934 169.794 203.862 169.936 203.734 170.041C203.605 170.146 203.431 170.205 203.25 170.205Z" fill="#1ABC9C"/>
<path d="M219.324 172.495H171.496C171.406 172.495 171.317 172.481 171.234 172.452C171.151 172.424 171.075 172.383 171.012 172.331C170.948 172.279 170.898 172.217 170.863 172.149C170.829 172.081 170.811 172.009 170.811 171.935C170.811 171.862 170.829 171.789 170.863 171.721C170.898 171.653 170.948 171.591 171.012 171.539C171.075 171.487 171.151 171.446 171.234 171.418C171.317 171.39 171.406 171.375 171.496 171.375H219.324C219.505 171.375 219.68 171.434 219.808 171.539C219.936 171.644 220.009 171.787 220.009 171.935C220.009 172.084 219.936 172.226 219.808 172.331C219.68 172.436 219.505 172.495 219.324 172.495Z" fill="#E6E6E6"/>
<path d="M234.912 197.85H155.908C155.204 197.849 154.529 197.62 154.031 197.213C153.533 196.806 153.253 196.255 153.253 195.679V186.219C153.253 185.644 153.533 185.092 154.031 184.685C154.529 184.278 155.204 184.049 155.908 184.048H234.912C235.616 184.049 236.291 184.278 236.788 184.685C237.286 185.092 237.566 185.644 237.567 186.219V195.679C237.566 196.255 237.286 196.806 236.788 197.213C236.291 197.62 235.616 197.849 234.912 197.85Z" fill="#E6E6E6"/>
<path d="M227.236 196.386H157.699C156.995 196.385 156.32 196.156 155.822 195.749C155.325 195.342 155.045 194.79 155.044 194.215V187.685C155.045 187.109 155.325 186.557 155.822 186.15C156.32 185.743 156.995 185.515 157.699 185.514H233.121C233.825 185.515 234.5 185.743 234.998 186.15C235.495 186.557 235.775 187.109 235.776 187.685V189.403C235.774 191.255 234.873 193.029 233.272 194.338C231.671 195.647 229.5 196.384 227.236 196.386Z" fill="white"/>
<path d="M203.25 190.276H171.496C171.314 190.276 171.14 190.217 171.012 190.112C170.883 190.007 170.811 189.865 170.811 189.716C170.811 189.568 170.883 189.426 171.012 189.321C171.14 189.216 171.314 189.157 171.496 189.157H203.25C203.431 189.157 203.605 189.216 203.734 189.321C203.862 189.426 203.934 189.568 203.934 189.716C203.934 189.865 203.862 190.007 203.734 190.112C203.605 190.217 203.431 190.276 203.25 190.276Z" fill="#1ABC9C"/>
<path d="M219.324 192.566H171.496C171.314 192.566 171.14 192.507 171.012 192.402C170.883 192.297 170.811 192.155 170.811 192.006C170.811 191.858 170.883 191.715 171.012 191.61C171.14 191.505 171.314 191.446 171.496 191.446H219.324C219.505 191.446 219.68 191.505 219.808 191.61C219.936 191.715 220.009 191.858 220.009 192.006C220.009 192.155 219.936 192.297 219.808 192.402C219.68 192.507 219.505 192.566 219.324 192.566Z" fill="#E6E6E6"/>
<path d="M116.548 130.138C121.111 130.138 124.811 127.113 124.811 123.382C124.811 119.651 121.111 116.627 116.548 116.627C111.984 116.627 108.285 119.651 108.285 123.382C108.285 127.113 111.984 130.138 116.548 130.138Z" fill="#FFB9B9"/>
<path d="M110.472 127.727C110.373 127.727 110.275 127.714 110.181 127.688C109.812 127.556 109.504 127.332 109.3 127.048C107.877 125.375 107.191 123.145 107.259 120.419C107.287 119.266 107.447 117.792 108.435 116.616C109.266 115.628 110.946 114.844 112.512 115.237C112.494 114.981 112.564 114.726 112.713 114.501C112.862 114.275 113.085 114.088 113.357 113.96C113.95 113.663 114.664 113.608 115.294 113.56C116.884 113.438 118.528 113.312 120.139 113.561C121.945 113.841 123.421 114.602 124.19 115.649L124.206 115.682L124.362 116.302C124.383 116.386 124.426 116.464 124.487 116.533C124.549 116.601 124.628 116.658 124.72 116.699C124.811 116.74 124.912 116.765 125.016 116.771C125.12 116.777 125.224 116.765 125.321 116.735C125.428 116.702 125.543 116.693 125.655 116.707C125.767 116.722 125.873 116.76 125.961 116.819C126.05 116.877 126.118 116.953 126.16 117.039C126.201 117.126 126.215 117.22 126.198 117.312L126.155 117.559L126.609 117.489C126.723 117.472 126.84 117.479 126.949 117.511C127.058 117.543 127.154 117.598 127.229 117.67C127.303 117.742 127.353 117.829 127.373 117.922C127.393 118.015 127.383 118.111 127.343 118.2L127.214 118.484C127.308 118.484 127.401 118.5 127.487 118.531C127.573 118.562 127.65 118.607 127.714 118.664C127.806 118.744 127.864 118.847 127.88 118.957C127.895 119.066 127.867 119.177 127.8 119.273C127.292 119.982 126.572 120.575 125.707 120.994C125.235 121.227 124.718 121.393 124.178 121.486C120.675 122.104 117.064 122.193 113.522 121.748C113.732 122.319 113.813 122.916 113.76 123.511C113.647 124.255 113.113 124.869 112.4 125.075C112.237 125.118 112.071 125.151 111.903 125.173C111.741 125.193 111.583 125.225 111.428 125.267C111.198 125.336 110.995 125.453 110.839 125.607C110.683 125.76 110.579 125.945 110.537 126.142C110.496 126.338 110.519 126.541 110.604 126.728C110.689 126.915 110.833 127.081 111.021 127.208L111.373 126.909L111.258 127.29C111.234 127.364 111.192 127.433 111.133 127.493C111.074 127.553 111.001 127.602 110.917 127.637C110.781 127.696 110.628 127.727 110.472 127.727Z" fill="#2F2E41"/>
<path d="M225.416 229.728L225.75 223.583C229.235 222.06 233.122 221.255 237.074 221.239C231.635 224.874 232.315 231.882 228.628 236.77C227.464 238.288 225.896 239.571 224.043 240.526C222.189 241.481 220.096 242.083 217.92 242.287L213.368 244.565C212.744 241.719 212.882 238.796 213.772 235.997C214.662 233.199 216.284 230.591 218.526 228.354C219.799 227.11 221.258 226.001 222.87 225.054C223.96 227.404 225.416 229.728 225.416 229.728Z" fill="#F2F2F2"/>
<path d="M258 244.716C258 244.753 257.991 244.79 257.974 244.825C257.956 244.859 257.931 244.891 257.898 244.917C257.866 244.943 257.828 244.964 257.785 244.979C257.743 244.993 257.698 245 257.652 245H5.3478C5.25557 245 5.16711 244.97 5.10188 244.917C5.03666 244.863 5.00002 244.791 5.00002 244.716C5.00002 244.64 5.03666 244.568 5.10188 244.515C5.16711 244.461 5.25557 244.431 5.3478 244.431H257.652C257.698 244.431 257.743 244.438 257.785 244.453C257.828 244.467 257.866 244.488 257.898 244.514C257.931 244.541 257.956 244.572 257.974 244.607C257.991 244.641 258 244.678 258 244.716Z" fill="#CCCCCC"/>
</g>
<defs>
<clipPath id="clip0_104_10">
<rect width="253" height="170" fill="white" transform="translate(5 75)"/>
</clipPath>
</defs>
</svg>
