<?xml version="1.0" encoding="UTF-8"?>
<!DOCTYPE svg PUBLIC "-//W3C//DTD SVG 1.1//EN" "http://www.w3.org/Graphics/SVG/1.1/DTD/svg11.dtd">
<!-- Creator: CorelDRAW 2021 (64 Bit) -->
<svg xmlns="http://www.w3.org/2000/svg" xml:space="preserve" width="29.6332mm" height="16.9332mm" version="1.1" style="shape-rendering:geometricPrecision; text-rendering:geometricPrecision; image-rendering:optimizeQuality; fill-rule:evenodd; clip-rule:evenodd"
viewBox="0 0 2963.32 1693.32"
 xmlns:xlink="http://www.w3.org/1999/xlink"
 xmlns:xodm="http://www.corel.com/coreldraw/odm/2003">
 <defs>
  <style type="text/css">
   <![CDATA[
    .fil0 {fill:#42A1DF;fill-rule:nonzero}
    .fil1 {fill:#F39C12;fill-rule:nonzero}
   ]]>
  </style>
 </defs>
 <g id="Camada_x0020_1">
  <metadata id="CorelCorpID_0Corel-Layer"/>
  <g id="_2103567168272">
   <path class="fil0" d="M1298.64 519.09c9.04,-4.56 20.07,-0.92 24.63,8.11 4.56,9.04 0.92,20.08 -8.11,24.64l-548.97 276.1 0 642.29 512.28 -249.9 0 -537.63 -431.94 222.13 0 410.99 334.85 -168.95 0 -308.7 -251.52 111.14 -5.64 220.03 173.46 -79.84 0 -145.62c0,-10.15 8.23,-18.38 18.38,-18.38 10.15,0 18.38,8.23 18.38,18.38l0 157.35c-0.04,6.93 -3.99,13.56 -10.7,16.66l-210.89 97.08c-2.48,1.11 -5.23,1.72 -8.12,1.65 -10.11,-0.23 -18.11,-8.63 -17.88,-18.74l6.65 -259.84c-0.33,-7.36 3.81,-14.5 10.95,-17.65l287.05 -126.84c2.48,-1.25 5.29,-1.95 8.26,-1.95 10.15,0 18.38,8.23 18.38,18.38l0 348.16c-0.05,6.7 -3.74,13.16 -10.12,16.37l-370.49 186.94c-2.75,1.63 -5.96,2.57 -9.38,2.57 -10.15,0 -18.38,-8.24 -18.38,-18.38l0 -451.97c0.05,-6.64 3.67,-13.04 9.98,-16.29l467.53 -240.44c2.79,-1.71 6.06,-2.69 9.57,-2.69 10.15,0 18.38,8.23 18.38,18.38l0 579.17c-0.02,6.8 -3.81,13.34 -10.33,16.51l-548.35 267.49c-2.6,1.41 -5.58,2.21 -8.74,2.21 -10.14,0 -18.38,-8.23 -18.38,-18.38l0 -682.97c0.05,-6.7 3.74,-13.16 10.12,-16.37l559.09 -281.2z"/>
   <path class="fil0" d="M97.71 559.96c-9.03,-4.56 -12.67,-15.6 -8.11,-24.64 4.56,-9.03 15.59,-12.67 24.63,-8.11l559.08 281.22c6.39,3.21 10.08,9.67 10.08,16.37l0.05 682.95c0,10.15 -8.24,18.38 -18.38,18.38 -3.17,0 -6.14,-0.8 -8.74,-2.21l-548.35 -267.49c-6.52,-3.17 -10.31,-9.71 -10.32,-16.51l-0.01 -579.17c0,-10.15 8.23,-18.38 18.38,-18.38 3.5,0 6.78,0.98 9.57,2.69l467.53 240.44c6.31,3.25 9.93,9.65 9.93,16.29l0.05 451.95c0,10.15 -8.23,18.38 -18.38,18.38 -3.42,0 -6.63,-0.94 -9.38,-2.57l-370.49 -186.9c-6.38,-3.21 -10.07,-9.67 -10.08,-16.37l-0.04 -348.18c0,-10.15 8.23,-18.38 18.38,-18.38 2.97,0 5.77,0.7 8.25,1.95l287.06 126.83c7.14,3.15 11.28,10.29 10.95,17.64l6.65 259.88c0.23,10.11 -7.78,18.51 -17.88,18.74 -2.89,0.07 -5.64,-0.54 -8.1,-1.68l-210.91 -97.07c-6.71,-3.09 -10.66,-9.72 -10.67,-16.65l-0.03 -157.34c0,-10.15 8.23,-18.38 18.38,-18.38 10.15,0 18.38,8.23 18.38,18.38l0 145.6 173.46 79.86 -5.64 -220.06 -251.52 -111.13 0 308.72 334.85 168.92 0 -410.97 -431.94 -222.14 0 537.63 512.28 249.9 0 -642.27 -548.97 -276.12z"/>
   <path class="fil1" d="M1291.73 457.23c9.11,4.39 12.94,15.36 8.54,24.48 -4.4,9.11 -15.37,12.94 -24.48,8.54l-585.58 -284.17 -507.64 267.32 518.97 262.19 434.89 -218.75 -446.34 -209.11 -340.58 166.42 345.99 176.9 251.85 -133.48 -240.52 -125.28 -181.61 84.91 173.21 86.6 125.61 -65.53c8.96,-4.67 20.02,-1.21 24.7,7.75 4.67,8.97 1.21,20.03 -7.75,24.71l-133.91 69.86c-5.03,2.61 -11.2,2.86 -16.66,0.14l-215.1 -107.55c-3.71,-1.76 -6.85,-4.77 -8.73,-8.78 -4.28,-9.15 -0.32,-20.06 8.84,-24.34l222.84 -104.19c5.23,-2.96 11.82,-3.3 17.54,-0.32l279.47 145.56c3.2,1.69 5.94,4.32 7.76,7.76 4.71,8.96 1.27,20.05 -7.69,24.77l-291.11 154.29c-5.11,2.64 -11.37,2.88 -16.87,0.07l-385.86 -197.29c-4.01,-1.65 -7.46,-4.72 -9.51,-8.93 -4.44,-9.11 -0.64,-20.11 8.47,-24.55l381.35 -186.33c4.82,-2.28 10.59,-2.51 15.79,-0.08l487.68 228.47c3.96,1.61 7.38,4.61 9.46,8.72 4.56,9.04 0.92,20.08 -8.11,24.63l-476.86 239.85c-5.02,2.52 -11.13,2.73 -16.52,0l-558.85 -282.33c-3.33,-1.65 -6.2,-4.34 -8.06,-7.88 -4.72,-8.96 -1.28,-20.05 7.68,-24.77l547.29 -288.2c4.97,-2.61 11.07,-2.91 16.51,-0.29l593.9 288.21z"/>
   <path class="fil0" d="M1593.59 747.83l198.78 -0.58 0 73.51 -198.19 0.59 -0.59 -73.52zm6.46 168.79l225.25 0 -0.58 76.46 -318.18 0 0.59 -411.68 310.53 0 -1.18 76.45 -215.25 0 -1.18 258.77zm486.38 76.46l0 -61.75 -5.88 -13.53 0 -110.56c0,-19.61 -5.99,-34.9 -17.94,-45.87 -11.96,-10.99 -30.29,-16.47 -54.99,-16.47 -16.86,0 -33.42,2.64 -49.7,7.94 -16.27,5.29 -30.09,12.44 -41.46,21.46l-32.93 -64.1c17.24,-12.16 38.03,-21.57 62.34,-28.23 24.31,-6.67 49.01,-10 74.1,-10 48.23,0 85.67,11.37 112.33,34.11 26.66,22.74 39.99,58.22 39.99,106.45l0 180.55 -85.86 0zm-96.45 4.7c-24.7,0 -45.87,-4.21 -63.52,-12.64 -17.64,-8.43 -31.17,-19.9 -40.58,-34.4 -9.41,-14.51 -14.11,-30.78 -14.11,-48.82 0,-18.82 4.6,-35.28 13.81,-49.4 9.22,-14.11 23.82,-25.19 43.82,-33.23 20,-8.04 46.07,-12.05 78.22,-12.05l84.1 0 0 53.51 -74.1 0c-21.57,0 -36.37,3.53 -44.4,10.59 -8.05,7.06 -12.06,15.88 -12.06,26.47 0,11.76 4.6,21.07 13.82,27.93 9.21,6.87 21.86,10.29 37.93,10.29 15.29,0 29.01,-3.63 41.17,-10.88 12.16,-7.25 20.98,-17.93 26.47,-32.05l14.11 42.35c-6.66,20.38 -18.82,35.87 -36.46,46.45 -17.64,10.59 -40.39,15.88 -68.22,15.88zm371.68 0c-27.05,0 -53.02,-3.23 -77.92,-9.7 -24.9,-6.47 -44.6,-14.6 -59.11,-24.4l30.59 -65.87c14.5,9.01 31.66,16.37 51.46,22.05 19.8,5.69 39.31,8.53 58.51,8.53 21.18,0 36.17,-2.55 44.99,-7.65 8.83,-5.1 13.24,-12.15 13.24,-21.17 0,-7.45 -3.43,-13.04 -10.29,-16.76 -6.86,-3.73 -15.98,-6.57 -27.35,-8.53 -11.37,-1.96 -23.82,-3.92 -37.34,-5.88 -13.53,-1.96 -27.16,-4.6 -40.88,-7.94 -13.72,-3.33 -26.27,-8.33 -37.64,-15 -11.37,-6.66 -20.49,-15.68 -27.34,-27.05 -6.87,-11.37 -10.3,-26.07 -10.3,-44.11 0,-19.99 5.79,-37.64 17.35,-52.93 11.57,-15.29 28.33,-27.35 50.29,-36.17 21.95,-8.82 48.22,-13.23 78.8,-13.23 21.57,0 43.52,2.35 65.87,7.05 22.35,4.71 40.98,11.57 55.88,20.59l-30.59 65.28c-15.29,-9.02 -30.68,-15.19 -46.16,-18.52 -15.49,-3.34 -30.49,-5 -45,-5 -20.38,0 -35.28,2.74 -44.7,8.23 -9.4,5.49 -14.11,12.54 -14.11,21.17 0,7.84 3.43,13.73 10.29,17.64 6.87,3.93 15.98,7.06 27.35,9.42 11.37,2.35 23.82,4.41 37.35,6.17 13.52,1.77 27.15,4.41 40.87,7.94 13.72,3.53 26.17,8.53 37.35,15 11.17,6.47 20.29,15.29 27.35,26.46 7.05,11.17 10.58,25.78 10.58,43.81 0,19.61 -5.88,36.96 -17.64,52.05 -11.77,15.1 -28.72,26.96 -50.88,35.59 -22.15,8.62 -49.11,12.93 -80.87,12.93zm239.96 114.1c-16.46,0 -32.74,-2.54 -48.81,-7.64 -16.08,-5.1 -29.21,-12.16 -39.41,-21.18l33.52 -65.28c7.06,6.27 15.2,11.18 24.41,14.71 9.21,3.53 18.33,5.29 27.35,5.29 12.94,0 23.23,-3.04 30.88,-9.12 7.64,-6.08 14.6,-16.17 20.88,-30.29l16.46 -38.81 7.06 -10 113.51 -272.88 88.22 0 -142.92 335.81c-10.2,25.49 -21.86,45.48 -34.99,59.99 -13.14,14.5 -27.64,24.7 -43.52,30.58 -15.88,5.88 -33.43,8.82 -52.64,8.82zm54.11 -106.45l-141.15 -328.75 94.69 0 109.39 264.64 -62.93 64.11z"/>
  </g>
 </g>
</svg>
